<svg width="24" height="24" viewBox="0 0 24 24" fill="none" xmlns="http://www.w3.org/2000/svg">
<path d="M8.8314 13.4524H7.03082V10.1842C7.03082 10.1355 7.01157 10.0889 6.97729 10.0544C6.943 10.0199 6.89645 10.0003 6.84781 10H6.18425C6.16006 10 6.13611 10.0048 6.11376 10.014C6.09142 10.0233 6.07111 10.0368 6.05401 10.0539C6.0369 10.0711 6.02334 10.0914 6.01408 10.1137C6.00482 10.1361 6.00006 10.16 6.00006 10.1842V14.3001C6.00006 14.3485 6.02013 14.3946 6.05201 14.4265V14.4277L6.05437 14.43L6.05673 14.4324C6.09097 14.4653 6.13674 14.4835 6.18425 14.4831H8.8314C8.93294 14.4831 9.01441 14.4005 9.01441 14.299V13.6378C9.01456 13.6136 9.00995 13.5896 9.00084 13.5672C8.99173 13.5448 8.97829 13.5244 8.96129 13.5072C8.9443 13.49 8.92408 13.4763 8.90179 13.4669C8.87951 13.4575 8.85558 13.4525 8.8314 13.4524ZM9.76534 10C9.71649 10 9.66964 10.0194 9.63509 10.0539C9.60055 10.0885 9.58115 10.1353 9.58115 10.1842V14.3001C9.58115 14.4017 9.6638 14.4831 9.76534 14.4831H10.4289C10.5304 14.4831 10.6119 14.4005 10.6119 14.3001V10.1842C10.6119 10.1355 10.5927 10.0889 10.5584 10.0544C10.5241 10.0199 10.4775 10.0003 10.4289 10H9.76534ZM14.3264 10C14.2776 10 14.2307 10.0194 14.1962 10.0539C14.1616 10.0885 14.1422 10.1353 14.1422 10.1842V12.6283L12.2566 10.0826C12.2519 10.0765 12.2467 10.0705 12.2413 10.0649C12.2375 10.0608 12.2336 10.0557 12.2295 10.052L12.2259 10.0484C12.2219 10.0445 12.2175 10.041 12.2129 10.0378L12.2059 10.0331L12.2023 10.0307C12.2005 10.0293 12.1985 10.0281 12.1964 10.0272L12.187 10.0213H12.1846L12.1811 10.0189L12.1693 10.0142L12.1645 10.0118C12.1607 10.0104 12.1567 10.0092 12.1527 10.0083H12.1504L12.1468 10.0071L12.1362 10.0047H12.1291L12.1256 10.0035H12.1208L12.1185 10.0024H11.4408C11.3921 10.0024 11.3454 10.0216 11.3109 10.0559C11.2764 10.0902 11.2569 10.1367 11.2566 10.1854V14.3013C11.2566 14.4029 11.3392 14.4843 11.4408 14.4843H12.102C12.2047 14.4843 12.2873 14.4017 12.2873 14.3013V11.8573L14.1765 14.4076C14.189 14.4252 14.2046 14.4403 14.2225 14.4524L14.2237 14.4536L14.2355 14.4607L14.2402 14.4631C14.2433 14.4649 14.2464 14.4664 14.2497 14.4678L14.2579 14.4713L14.2638 14.4737C14.2677 14.475 14.2717 14.4762 14.2756 14.4772H14.2792C14.2945 14.4817 14.3104 14.484 14.3264 14.4843H14.9876C15.0903 14.4843 15.173 14.4017 15.173 14.3013V10.1842C15.173 10.1353 15.1536 10.0885 15.119 10.0539C15.0845 10.0194 15.0376 10 14.9888 10H14.3264ZM18.8308 10.8466V10.1854C18.831 10.1612 18.8264 10.1372 18.8172 10.1148C18.8081 10.0924 18.7947 10.072 18.7777 10.0548C18.7607 10.0376 18.7405 10.0239 18.7182 10.0145C18.6959 10.0051 18.672 10.0002 18.6478 10H16.0007C15.953 10.0001 15.9073 10.0187 15.8731 10.052H15.872L15.8708 10.0543L15.8684 10.0579C15.8354 10.0917 15.8168 10.137 15.8165 10.1842V14.3001C15.8165 14.3485 15.8365 14.3946 15.8684 14.4265L15.8708 14.43L15.8731 14.4324C15.9074 14.4652 15.9532 14.4834 16.0007 14.4831H18.6478C18.7493 14.4831 18.8308 14.4005 18.8308 14.299V13.6378C18.831 13.6136 18.8264 13.5896 18.8172 13.5672C18.8081 13.5448 18.7947 13.5244 18.7777 13.5072C18.7607 13.49 18.7405 13.4763 18.7182 13.4669C18.6959 13.4575 18.672 13.4525 18.6478 13.4524H16.846V12.757H18.6466C18.7482 12.757 18.8296 12.6743 18.8296 12.5728V11.9116C18.8298 11.8874 18.8252 11.8634 18.8161 11.841C18.8069 11.8186 18.7935 11.7982 18.7765 11.781C18.7595 11.7638 18.7393 11.7501 18.717 11.7407C18.6947 11.7313 18.6708 11.7263 18.6466 11.7262H16.846V11.0308H18.6466C18.7482 11.0308 18.8296 10.9481 18.8296 10.8466H18.8308Z" fill="#282828" fill-opacity="0.6"/>
<path d="M21 8V16C21 17.3261 20.4732 18.5979 19.5355 19.5355C18.5979 20.4732 17.3261 21 16 21H8C6.67392 21 5.40215 20.4732 4.46447 19.5355C3.52678 18.5979 3 17.3261 3 16V8C3 6.67392 3.52678 5.40215 4.46447 4.46447C5.40215 3.52678 6.67392 3 8 3H16C17.3261 3 18.5979 3.52678 19.5355 4.46447C20.4732 5.40215 21 6.67392 21 8Z" stroke="#282828" stroke-opacity="0.6" stroke-linecap="round" stroke-linejoin="round"/>
</svg>
