<?xml version="1.0" standalone="no"?>
<!DOCTYPE svg PUBLIC "-//W3C//DTD SVG 20010904//EN"
 "http://www.w3.org/TR/2001/REC-SVG-20010904/DTD/svg10.dtd">
<svg version="1.0" xmlns="http://www.w3.org/2000/svg"
 width="700.000000pt" height="700.000000pt" viewBox="0 0 700.000000 700.000000"
 preserveAspectRatio="xMidYMid meet">
<metadata>
Created by potrace 1.14, written by Peter Selinger 2001-2017
</metadata>
<g transform="translate(0.000000,700.000000) scale(0.100000,-0.100000)"
fill="#000000" stroke="none">
<path d="M6845 5762 c-11 -2 -73 -16 -137 -32 -469 -116 -977 -446 -1494 -969
-57 -58 -105 -103 -107 -100 -2 2 -23 38 -47 79 -271 465 -721 807 -1232 939
-62 16 -131 32 -153 35 -23 4 -52 9 -65 11 -143 28 -481 23 -660 -10 -540
-100 -1007 -365 -1365 -775 -22 -25 -42 -45 -45 -46 -526 -53 -916 -212 -1204
-492 -271 -265 -390 -622 -311 -936 41 -159 157 -356 268 -453 l36 -32 1 -118
c0 -164 16 -247 68 -372 42 -100 96 -176 192 -272 149 -149 334 -247 572 -304
98 -23 123 -27 228 -40 64 -8 234 -8 310 0 l65 6 60 -47 c92 -72 254 -176 267
-172 7 3 -10 19 -38 38 -87 59 -234 182 -228 191 3 5 15 9 27 9 34 0 248 75
334 117 152 73 378 226 513 347 193 173 419 427 643 724 l130 172 49 -67 c27
-38 52 -73 55 -80 2 -6 -8 -31 -23 -54 -38 -61 -82 -187 -91 -261 -19 -167 7
-274 85 -360 l40 -43 -32 -65 c-46 -96 -146 -333 -146 -347 0 -7 11 -20 24
-28 42 -28 58 -8 130 167 88 211 99 234 117 229 62 -15 159 -18 234 -8 216 31
414 142 685 387 173 156 169 156 -34 4 -245 -184 -317 -231 -428 -284 -122
-58 -232 -84 -338 -78 -139 8 -138 -9 -11 244 195 388 374 698 596 1034 101
153 282 409 332 470 7 8 40 51 75 95 35 44 67 85 73 92 5 6 57 68 115 137 58
69 110 125 116 125 20 1 186 -360 200 -433 2 -14 9 -38 15 -53 12 -31 11 -27
33 -129 20 -94 37 -197 42 -259 3 -27 7 -56 9 -63 8 -21 24 -4 20 21 -2 12 -6
56 -9 97 -21 256 -102 524 -242 801 l-33 67 157 158 c422 426 794 683 1257
871 96 39 299 102 375 116 14 3 8 4 -15 4 -22 -1 -49 -3 -60 -5z m-3299 -44
c5 -3 32 -8 61 -12 29 -3 75 -11 103 -17 29 -6 57 -12 63 -13 72 -15 186 -52
292 -94 365 -144 688 -408 912 -742 70 -106 124 -200 114 -200 -5 0 -28 28
-52 63 -106 157 -284 356 -393 442 -22 17 -44 35 -51 42 -30 29 -197 144 -271
186 -207 119 -446 211 -659 253 -11 2 -33 7 -50 10 -107 23 -238 33 -420 30
-110 -2 -211 -6 -225 -9 -14 -3 -47 -8 -73 -12 -94 -12 -233 -44 -342 -80
-139 -46 -146 -49 -287 -117 -65 -32 -118 -56 -118 -53 0 2 55 33 123 69 253
135 525 219 807 252 30 3 57 8 58 9 6 6 398 -1 408 -7z m-135 -72 c37 -3 77
-7 90 -10 13 -3 42 -7 64 -10 199 -24 503 -129 709 -244 299 -167 548 -395
750 -687 59 -85 72 -55 -127 -278 -152 -170 -442 -556 -644 -857 l-70 -105
-102 -23 c-166 -38 -321 -126 -436 -248 l-40 -42 -57 73 -57 73 108 144 c59
79 242 328 406 553 164 226 369 505 455 620 163 219 184 249 178 266 -2 6
-136 -121 -298 -283 -270 -268 -391 -386 -601 -583 -83 -78 -263 -244 -295
-272 -46 -40 -168 -149 -180 -160 -14 -15 -31 -17 -36 -5 -1 4 -37 37 -78 73
-282 247 -588 408 -900 473 -310 66 -750 23 -1043 -100 -33 -14 -61 -23 -64
-20 -2 2 7 47 21 99 65 246 187 500 332 693 l53 71 63 3 c105 6 388 3 468 -4
505 -46 968 -208 1333 -468 82 -59 89 -56 10 5 -282 214 -580 353 -953 441
-219 53 -398 71 -681 71 l-197 -1 14 21 c8 12 61 67 120 123 240 231 499 388
816 494 66 21 127 41 136 43 9 1 62 12 117 24 132 27 152 30 275 37 58 4 106
7 107 8 4 3 168 -3 234 -8z m-1929 -834 c-146 -185 -300 -485 -378 -739 -37
-118 -39 -122 -78 -144 -165 -91 -381 -280 -478 -419 -87 -124 -160 -279 -188
-400 -20 -88 -21 -88 -84 -23 -94 96 -175 235 -206 353 -7 25 -14 54 -17 65
-3 11 -7 76 -8 145 -4 157 21 268 94 416 124 250 338 449 636 590 180 85 430
158 620 180 28 4 51 7 53 9 1 1 16 2 32 3 l31 1 -29 -37z m3673 -282 c19 -38
33 -70 30 -70 -2 0 -21 32 -40 70 -19 39 -33 70 -30 70 2 0 21 -31 40 -70z
m-792 8 c-44 -56 -690 -933 -807 -1096 l-89 -124 -51 58 c-28 31 -70 76 -92
100 -23 23 -39 46 -35 50 3 5 51 49 106 99 229 206 345 316 810 769 148 144
183 176 158 144z m-3142 -215 c-12 -20 -14 -14 -5 12 4 9 9 14 11 11 3 -2 0
-13 -6 -23z m-41 -113 c-16 -47 -36 -120 -46 -162 -10 -48 -22 -78 -30 -78
-10 0 -8 15 6 68 29 104 89 267 95 260 2 -2 -10 -41 -25 -88z m930 -114 c320
-39 628 -174 920 -405 125 -98 188 -159 174 -169 -6 -4 -48 -37 -95 -73 -362
-285 -831 -521 -1244 -627 -223 -57 -359 -78 -548 -84 l-79 -2 -19 54 c-23 63
-85 298 -93 350 -3 19 -8 58 -11 85 -3 28 -9 61 -12 75 -9 40 -11 348 -2 433
10 104 19 169 25 189 11 36 298 132 459 154 28 3 59 8 70 10 11 3 56 7 100 11
44 3 81 7 82 8 5 3 229 -3 273 -9z m-1005 -198 c-35 -159 -38 -510 -5 -698 5
-30 12 -71 15 -90 11 -67 45 -196 74 -282 l29 -88 -30 0 c-34 0 -42 16 -87
172 -33 114 -59 246 -68 353 -11 134 -6 377 11 472 22 125 30 160 39 171 15
19 28 14 22 -10z m-56 -35 c-27 -124 -34 -211 -33 -433 0 -161 4 -239 18 -310
18 -98 65 -276 91 -343 l15 -38 -62 6 c-35 3 -75 8 -90 11 -16 2 -43 6 -60 9
-82 14 -210 50 -296 86 -104 42 -240 123 -250 147 -18 48 82 314 165 441 110
168 266 316 449 426 32 19 59 35 60 35 1 0 -2 -17 -7 -37z m2269 -435 c80 -84
122 -131 122 -139 0 -9 -159 -217 -243 -319 -277 -333 -565 -566 -906 -734
-185 -91 -401 -166 -551 -192 -14 -2 -34 -6 -46 -9 -42 -9 -248 270 -357 484
-32 62 -57 115 -55 116 2 1 82 5 178 8 96 4 202 11 235 16 33 5 76 12 95 15
207 33 516 138 652 223 21 13 40 23 42 23 3 0 48 27 101 60 153 95 339 237
565 429 52 44 98 81 101 81 3 0 33 -28 67 -62z m810 -59 c-13 -21 -71 -119
-129 -217 -130 -216 -187 -317 -300 -537 -48 -93 -92 -171 -98 -173 -17 -6
-71 78 -88 137 -23 80 -21 199 6 296 21 75 76 195 90 195 4 0 28 -35 54 -77
26 -43 47 -73 47 -68 0 18 -41 119 -62 153 l-20 32 29 33 c50 58 141 131 210
170 64 35 220 91 264 94 19 2 19 0 -3 -38z m-3688 -475 c98 -68 258 -143 394
-183 38 -12 131 -31 206 -43 l138 -23 38 -79 c71 -146 223 -361 345 -490 l48
-51 -27 -9 c-15 -4 -110 -9 -212 -9 -170 -1 -193 1 -283 26 -135 36 -274 103
-392 189 -46 33 -159 151 -193 200 -56 82 -108 208 -128 313 -4 21 -7 144 -5
183 1 26 1 26 71 -24z m815 -256 c1 -2 30 -57 64 -123 71 -138 182 -308 271
-413 34 -40 59 -76 56 -79 -14 -15 -227 239 -312 372 -49 77 -134 232 -134
246 0 6 49 4 55 -3z"/>
<path d="M3490 4336 c0 -2 8 -10 18 -17 15 -13 16 -12 3 4 -13 16 -21 21 -21
13z"/>
<path d="M5311 3356 c-11 -30 -11 -31 7 -10 9 12 24 24 32 26 10 3 8 6 -7 10
-18 5 -24 0 -32 -26z"/>
<path d="M5433 3369 c-12 -4 -31 -26 -44 -48 -12 -23 -28 -41 -35 -41 -7 0
-16 -5 -19 -10 -4 -7 2 -9 17 -6 40 8 57 17 63 37 4 10 19 32 35 47 28 28 22
36 -17 21z"/>
<path d="M5510 3298 c0 -6 -9 -22 -21 -34 -16 -18 -18 -22 -5 -20 8 1 19 5 23
9 9 9 16 57 8 57 -3 0 -5 -5 -5 -12z"/>
<path d="M5290 3130 c0 -13 11 -13 30 0 12 8 11 10 -7 10 -13 0 -23 -4 -23
-10z"/>
<path d="M5470 3095 c27 -14 36 -13 25 4 -3 6 -16 11 -28 11 -21 -1 -21 -1 3
-15z"/>
<path d="M5360 3086 c0 -2 7 -9 15 -16 9 -7 15 -8 15 -2 0 5 -7 12 -15 16 -8
3 -15 4 -15 2z"/>
<path d="M5268 3022 c-4 -15 1 -19 26 -20 17 -1 64 -8 104 -17 89 -18 82 -18
82 0 0 14 -14 20 -70 29 -64 10 -106 18 -121 22 -10 3 -18 -3 -21 -14z"/>
<path d="M5234 2879 c-9 -15 -2 -18 20 -9 17 6 18 7 3 13 -9 3 -19 2 -23 -4z"/>
<path d="M5206 2805 c-6 -18 8 -25 99 -55 39 -12 76 -29 83 -38 6 -9 12 -11
12 -5 0 6 2 18 5 26 5 10 -13 20 -67 37 -40 12 -85 29 -100 36 -22 12 -27 11
-32 -1z"/>
<path d="M5181 2734 c-1 -12 6 -25 15 -28 13 -5 14 -3 7 6 -6 7 -13 20 -16 28
-4 10 -6 8 -6 -6z"/>
<path d="M5111 2545 c9 -9 44 -15 96 -17 45 -2 85 -7 89 -11 12 -12 20 -8 31
16 l10 22 -120 2 c-102 1 -118 -1 -106 -12z"/>
<path d="M5243 2402 c-7 -4 -9 -13 -4 -21 6 -9 10 -7 14 8 3 12 4 21 4 21 -1
0 -7 -4 -14 -8z"/>
<path d="M4932 2290 c-15 -25 -15 -30 0 -30 6 0 45 -25 86 -56 55 -42 77 -53
85 -45 8 8 9 14 1 19 -65 44 -146 107 -152 118 -6 11 -10 10 -20 -6z"/>
<path d="M5145 2249 c0 -34 1 -35 14 -10 8 13 7 22 -2 29 -9 8 -12 3 -12 -19z"/>
<path d="M4804 2129 c-18 -20 -18 -21 0 -31 37 -21 135 -121 129 -132 -3 -6 6
0 20 13 27 25 35 37 17 26 -6 -4 -29 12 -53 34 -23 22 -55 51 -71 64 -16 14
-25 30 -22 36 11 18 1 13 -20 -10z"/>
<path d="M4630 1995 c-25 -14 -24 -14 11 -8 25 3 40 0 52 -12 18 -17 22 -54
10 -71 -5 -5 0 -1 10 9 23 25 22 52 -3 77 -23 23 -45 25 -80 5z"/>
<path d="M4570 1945 c-10 -12 -10 -15 3 -15 8 0 17 -4 19 -9 2 -5 26 -34 55
-65 28 -30 59 -66 67 -78 l16 -22 22 23 c13 13 18 21 12 18 -13 -7 -30 7 -108
96 -32 37 -62 67 -66 67 -4 0 -13 -7 -20 -15z"/>
<path d="M3353 1818 c-34 -44 -14 -98 36 -98 50 0 77 53 47 93 -15 20 -69 23
-83 5z"/>
<path d="M4257 1693 c-3 -5 10 -9 29 -10 19 -1 32 3 29 8 -7 11 -52 12 -58 2z"/>
<path d="M4074 1647 c-2 -7 0 -24 5 -38 9 -22 10 -21 10 14 1 37 -5 48 -15 24z"/>
<path d="M4219 1621 c17 -30 47 -43 95 -40 23 2 48 -1 55 -5 22 -14 22 0 0 20
-15 14 -34 18 -68 17 -27 -1 -55 4 -69 13 -22 15 -23 14 -13 -5z"/>
<path d="M2415 1621 c3 -5 -13 -56 -35 -113 -22 -57 -40 -106 -40 -109 0 -4 9
-9 20 -12 15 -4 20 0 20 13 0 28 66 191 81 201 10 6 6 11 -14 18 -35 13 -40
14 -32 2z"/>
<path d="M2543 1573 c11 -18 -65 -213 -83 -213 -13 0 -13 -1 0 -10 18 -12 43
-13 36 -2 -8 13 63 195 82 210 8 6 11 12 5 12 -6 0 -19 3 -29 7 -11 4 -15 3
-11 -4z"/>
<path d="M3925 1540 c-19 -8 -19 -9 2 -9 12 -1 25 4 28 9 7 12 -2 12 -30 0z"/>
<path d="M3813 1510 c-13 -5 -23 -12 -23 -15 0 -4 4 -4 8 -1 17 10 100 -88
112 -131 6 -26 17 -43 25 -43 19 0 19 9 -1 55 -8 21 -13 44 -10 52 3 8 2 12
-3 9 -12 -8 -84 62 -76 74 7 12 -2 12 -32 0z"/>
<path d="M4285 1490 c8 -13 35 -13 55 0 11 7 5 10 -23 10 -23 0 -36 -4 -32
-10z"/>
<path d="M3666 1472 c-2 -4 4 -14 15 -20 19 -12 19 -11 9 8 -12 22 -16 24 -24
12z"/>
<path d="M2795 1460 c-4 -6 3 -48 14 -95 12 -46 20 -89 19 -96 -2 -6 8 -15 21
-20 20 -8 22 -7 16 8 -4 10 -17 62 -29 116 -20 93 -27 109 -41 87z"/>
<path d="M3558 1455 c-2 -3 1 -38 9 -78 7 -39 14 -86 15 -103 1 -25 5 -30 19
-27 13 4 17 12 13 32 -3 14 -10 59 -17 100 -11 67 -23 91 -39 76z"/>
<path d="M2996 1432 c25 -16 61 -110 58 -151 -2 -23 -5 -45 -8 -49 -3 -4 5 -8
17 -8 21 0 22 3 17 61 -3 33 -14 75 -24 93 -9 19 -15 40 -12 48 4 10 -3 14
-27 14 -18 0 -27 -4 -21 -8z"/>
<path d="M3315 1430 c-16 -4 -25 -8 -19 -9 6 -1 10 -38 10 -101 -1 -97 0 -100
21 -100 13 0 21 5 18 13 -10 33 -12 186 -2 196 6 6 9 10 7 10 -3 -1 -18 -5
-35 -9z"/>
<path d="M3120 1426 c0 -9 30 -14 35 -6 4 6 -3 10 -14 10 -12 0 -21 -2 -21 -4z"/>
<path d="M3650 1371 c0 -11 4 -22 9 -25 4 -3 6 6 3 19 -5 30 -12 33 -12 6z"/>
<path d="M2687 1303 c-10 -9 -9 -23 1 -23 5 0 9 7 9 15 0 17 -1 18 -10 8z"/>
<path d="M3702 1286 c-7 -16 -8 -26 -1 -26 12 0 22 25 17 41 -2 6 -9 0 -16
-15z"/>
<path d="M3431 1246 c-7 -8 -8 -17 -3 -20 6 -3 12 3 15 14 6 24 4 25 -12 6z"/>
</g>
</svg>
