<?xml version="1.0" encoding="utf-8"?>
<!-- Generator: Adobe Illustrator 27.2.0, SVG Export Plug-In . SVG Version: 6.00 Build 0)  -->
<svg version="1.1" id="圖層_1" xmlns="http://www.w3.org/2000/svg" xmlns:xlink="http://www.w3.org/1999/xlink" x="0px" y="0px"
	 viewBox="0 0 640 640" style="enable-background:new 0 0 640 640;" xml:space="preserve">
<style type="text/css">
	.st0{fill:#595757;}
</style>
<g>
	<path class="st0" d="M191.01,488.63C144,461.2,110.08,418.04,97.94,370.2c-11.23-42.24-6.12-89.13,14.4-132.02
		c19.97-41.75,52.72-76.53,92.21-97.94c96.73-52.42,208.77-22.09,260.6,70.55c14.84,26.52,23.5,49.28,27.24,71.62
		c1.44,8.5,2.32,17.07,2.63,25.47l0.03,0.73l-1.87,0.1l-0.05-0.72c-7.08-96.08-81.45-173.38-176.84-183.82
		c-43.74-4.88-88.63,5.39-126.4,28.9c-56.62,35.78-89.47,94.73-90.11,161.75c-0.67,69.62,33.72,134.13,92.01,172.56L191.01,488.63z
		 M119.42,227.34c-24.19,43.96-32.62,95.22-20.05,142.49c10.1,39.8,35.41,76.34,70.83,103.16c-46.02-39.33-72.51-96.78-71.91-158.19
		C98.6,283.38,105.93,253.71,119.42,227.34 M294.89,121.5c7.2,0,14.4,0.4,21.57,1.19c84.98,9.3,153.4,71.27,173.03,152.42
		c-4.29-19.78-12.54-40.2-25.62-63.59c-51.43-91.92-162.6-122-258.61-69.97c-11.03,5.98-21.4,12.9-31.04,20.6
		c4.76-3.63,9.73-7.08,14.88-10.34C220.97,131.97,257.86,121.5,294.89,121.5"/>
	<path class="st0" d="M231.96,495.4c0.15,0.03,0.37,0.17,0.67,0.41c0.3,0.24,0.5,0.5,0.61,0.78c0.11,0.28,0.07,0.67-0.11,1.15
		l-3.19,8.42l-9.37-3.55l3.19-8.42c0.15-0.4,0.39-0.72,0.7-0.94c0.19-0.14,0.47-0.2,0.85-0.21c0.38,0,0.67,0.05,0.88,0.18l0.11-0.3
		l-6.26-2.38l-0.11,0.3c0.15,0.03,0.37,0.17,0.67,0.41c0.3,0.24,0.5,0.5,0.61,0.78c0.11,0.28,0.07,0.67-0.11,1.15l-6.57,17.31
		c-0.18,0.48-0.41,0.79-0.68,0.93c-0.27,0.14-0.6,0.2-0.98,0.18c-0.38-0.02-0.64-0.07-0.77-0.14l-0.11,0.3l6.26,2.38l0.11-0.3
		c-0.24-0.04-0.49-0.19-0.78-0.45c-0.28-0.26-0.45-0.5-0.5-0.72c-0.09-0.38-0.05-0.77,0.1-1.17l3.28-8.65l9.37,3.55l-3.28,8.65
		c-0.18,0.48-0.41,0.79-0.68,0.93c-0.27,0.14-0.6,0.2-0.98,0.18c-0.38-0.02-0.64-0.07-0.77-0.14l-0.11,0.3l4.96,1.88l0.11-0.3
		c-0.24-0.04-0.49-0.19-0.78-0.45c-0.28-0.26-0.45-0.5-0.5-0.72c-0.09-0.38-0.05-0.77,0.1-1.17l6.57-17.31
		c0.15-0.4,0.39-0.71,0.7-0.94c0.19-0.14,0.47-0.2,0.85-0.21c0.38,0,0.67,0.05,0.88,0.18l0.11-0.3l-4.96-1.88L231.96,495.4z"/>
	<path class="st0" d="M261.76,525.03c-0.35-0.43-0.54-0.81-0.57-1.16l-4.16-19.15l-11.08,16.09c-0.13,0.23-0.3,0.42-0.53,0.55
		c-0.11,0.08-0.32,0.18-0.63,0.32c-0.56,0.24-1.2,0.29-1.9,0.15l-0.06,0.29l4.98,1l0.06-0.29c-0.18,0-0.46-0.11-0.84-0.35
		c-0.38-0.24-0.63-0.44-0.76-0.6c-0.23-0.32-0.26-0.67-0.09-1.03c0,0,2.93-4.26,2.93-4.26c0,0,0.54-0.78,0.54-0.78
		c0,0,0.31-0.44,0.31-0.45l5.23-7.47c0.1,0.43,0.21,0.85,0.31,1.28c0.23,0.96,0.47,1.92,0.7,2.87c0.25,1.01,0.49,2.01,0.74,3.02
		c0.41,1.69,0.8,3.39,1.16,5.09c0.17,0.8,0.34,1.61,0.51,2.41c0.06,0.27,0.1,0.55,0.17,0.81c0.03,0.36-0.11,0.7-0.42,1
		c-0.31,0.3-0.75,0.4-1.32,0.29l-0.06,0.28l6.43,1.29l0.06-0.29c-0.21-0.04-0.52-0.17-0.92-0.39S261.89,525.18,261.76,525.03"/>
	<path class="st0" d="M486.66,406.92c-0.5,0.22-0.91,0.29-1.24,0.23l-19.22-1.21l12.24,14.79c0.19,0.18,0.31,0.4,0.38,0.65
		c0.04,0.13,0.09,0.36,0.13,0.68c0.08,0.6-0.04,1.21-0.36,1.84l0.25,0.13l2.28-4.44l-0.25-0.13c-0.05,0.17-0.23,0.41-0.55,0.7
		c-0.32,0.3-0.58,0.48-0.77,0.56c-0.37,0.13-0.7,0.07-1-0.19c0,0-3.24-3.91-3.24-3.91c0,0-0.6-0.72-0.6-0.72
		c0,0-0.34-0.41-0.34-0.41l-5.66-6.95c0.43,0.02,0.86,0.03,1.29,0.05c0.97,0.03,1.94,0.07,2.9,0.11c1.02,0.04,2.04,0.07,3.05,0.11
		c1.71,0.06,3.42,0.15,5.12,0.27c0.81,0.06,1.61,0.11,2.42,0.17c0.27,0.02,0.54,0.05,0.82,0.06c0.35,0.07,0.63,0.29,0.83,0.67
		c0.21,0.37,0.18,0.81-0.08,1.32l0.25,0.13l2.94-5.73l-0.25-0.13c-0.1,0.19-0.3,0.44-0.62,0.76
		C487.08,406.63,486.83,406.83,486.66,406.92"/>
	<path class="st0" d="M284.34,509.3c0.19-0.02,0.56,0.08,0.98,0.18c0.51,0.12,0.94,0.35,1.08,0.48c0.44,0.4,0.63,0.86,0.52,1.1
		l-5.16,7.99l-3.95-8.64c-0.14-0.43-0.11-0.77,0.1-1.02c0.31-0.42,0.72-0.57,1.23-0.46l0.02-0.28l-6.32-0.44l-0.02,0.28
		c0.21,0.01,0.51,0.1,0.91,0.27c0.4,0.16,0.67,0.32,0.81,0.46c0.35,0.35,0.59,0.69,0.72,1.03l4.29,8.91l-0.48,6.88
		c-0.03,0.45-0.14,0.77-0.34,0.95c-0.19,0.18-0.45,0.32-0.78,0.4c-0.33,0.08-0.55,0.11-0.68,0.08l-0.02,0.28l5.62,0.4l0.02-0.28
		c-0.21,0.02-0.46-0.04-0.76-0.18c-0.3-0.14-0.5-0.3-0.6-0.48c-0.17-0.29-0.24-0.63-0.21-1l0.48-6.88l5.35-8.26
		c0.2-0.38,0.54-0.72,1.03-1c0.49-0.29,1.08-0.41,1.78-0.36l0.02-0.28l-5.62-0.4L284.34,509.3z"/>
	<path class="st0" d="M313.1,527.06c-0.52,0.48-1.52,0.78-3.05,0.85l-3.68,0.18c-0.25,0.01-0.45-0.05-0.62-0.17
		c-0.17-0.12-0.26-0.34-0.27-0.64l-0.78-16.44c-0.02-0.38,0.06-0.71,0.24-1.01c0.1-0.18,0.31-0.33,0.62-0.47
		c0.31-0.14,0.56-0.19,0.77-0.17l-0.01-0.28l-5.95,0.28l0.01,0.28c0.13-0.02,0.36,0.01,0.69,0.1c0.33,0.09,0.58,0.23,0.77,0.42
		c0.19,0.19,0.29,0.51,0.32,0.97l0.74,15.6c0.02,0.45-0.05,0.78-0.22,0.99c-0.17,0.21-0.41,0.37-0.73,0.49
		c-0.32,0.12-0.54,0.17-0.67,0.16l0.01,0.28l13.59-0.65l-0.27-5.66c0.01,0.3-0.06,1.24-0.15,2.04
		C314.31,525.43,314.24,526.02,313.1,527.06"/>
	<path class="st0" d="M471.1,434.72c0.05,0.71-0.34,1.69-1.24,2.93l-2.17,3c-0.14,0.2-0.32,0.33-0.52,0.38s-0.43-0.01-0.67-0.19
		l-13.41-9.7c-0.31-0.22-0.52-0.5-0.64-0.82c-0.07-0.19-0.07-0.45,0.02-0.78c0.08-0.33,0.2-0.56,0.36-0.71l-0.23-0.17l-3.51,4.85
		l0.23,0.17c0.06-0.12,0.23-0.28,0.51-0.48c0.27-0.2,0.54-0.32,0.81-0.34s0.59,0.09,0.96,0.36l12.72,9.2
		c0.37,0.27,0.58,0.53,0.64,0.8c0.06,0.26,0.03,0.56-0.07,0.88c-0.1,0.32-0.2,0.53-0.3,0.63l0.23,0.17l8.02-11.08l-4.62-3.34
		c0.25,0.18,0.94,0.83,1.51,1.4C470.57,432.75,471,433.18,471.1,434.72"/>
	<path class="st0" d="M372.17,489.09c0.31,1.5,0.66,3.46,1.05,5.89c0.3-0.19-0.26,0.1-0.09,0.01c0.13-0.07,0.38-0.19,0.75-0.36
		l0.07-2.62c0.01-0.5,0.04-1.12,0.09-1.86c0.05-0.74,0.08-1.45,0.1-2.12c-0.58,0.33-1.06,0.59-1.44,0.8
		C372.39,488.99,372.74,488.8,372.17,489.09"/>
	<path class="st0" d="M454.52,456.88c-0.3,0.15-0.55,0.21-0.76,0.18c-0.34-0.05-0.64-0.2-0.93-0.46l-11.55-10.5
		c-0.28-0.25-0.46-0.55-0.54-0.88c-0.05-0.2-0.01-0.45,0.1-0.77c0.12-0.31,0.26-0.53,0.43-0.66l-0.21-0.19l-4,4.4l0.21,0.19
		c0.08-0.11,0.26-0.25,0.55-0.42c0.29-0.17,0.57-0.25,0.84-0.25c0.27,0,0.57,0.16,0.91,0.46l11.55,10.5
		c0.34,0.31,0.52,0.59,0.54,0.86c0.03,0.27-0.03,0.55-0.17,0.86c-0.14,0.31-0.26,0.5-0.36,0.59l0.21,0.19l4.2-4.61l-0.21-0.19
		C455.22,456.36,454.83,456.74,454.52,456.88"/>
	<path class="st0" d="M477.73,393.36c-1.47-0.88-2.79-1.94-3.15-2.91c-0.27-0.71-0.25-1.5,0.25-2.9l0.56-1.59
		c0.08-0.23,0.21-0.4,0.39-0.5c0.18-0.11,0.41-0.11,0.69-0.01l15.41,5.47c0.43,0.15,0.7,0.34,0.83,0.58
		c0.13,0.23,0.19,0.52,0.18,0.85c-0.01,0.34-0.04,0.56-0.11,0.68l0.27,0.09l2.07-5.84l-0.27-0.09c-0.03,0.21-0.25,0.7-0.47,0.95
		c-0.22,0.25-0.43,0.4-0.62,0.45c-0.33,0.08-0.67,0.06-1.02-0.06l-15.41-5.47c-0.28-0.1-0.46-0.25-0.53-0.44
		c-0.07-0.19-0.07-0.41,0.02-0.64l0.56-1.59c0.5-1.4,0.98-2.02,1.64-2.41c0.91-0.53,2.6-0.53,4.28-0.28l-4.54-1.61l-5.55,15.65
		L477.73,393.36z"/>
	<path class="st0" d="M394.34,492.29c-0.16,0.01-0.33,0.03-0.49,0.05c-1.66,0.17-4.19,0.55-5.83,0.08
		c-0.83-0.24-1.61-0.75-2.01-1.51c-0.35-0.67-0.37-1.48-0.14-2.19c0.23-0.72,0.7-1.34,1.27-1.83c2.16-1.87,6.31-1.66,8.24,0.43
		c0.13,0.14,0.25,0.29,0.37,0.45c-0.59-1.05-1.17-2.11-1.75-3.16c-0.08-0.14-0.16-0.29-0.31-0.36c-0.15-0.08-0.32-0.06-0.48-0.04
		c-2.83,0.32-6.52,1.49-7.57,4.49c-0.07,0.2-0.12,0.4-0.16,0.61c-0.45,2.6,1.73,5.1,4.08,5.85c1.09,0.34,2.17,0.38,3.29,0.3
		c0.72-0.05,1.43-0.12,2.15-0.2c1.11-0.12,2.7-0.3,3.8,0.05c2.12,0.68,2.82,3.28,1.9,5.16c-0.66,1.35-2.1,2.06-3.5,2.41
		c-0.68,0.17-1.38,0.27-2.09,0.29c-0.69,0.02-1.38,0.02-2.04-0.15c-0.85-0.22-1.65-0.7-2.14-1.42c0.61,1.09,1.22,2.18,1.83,3.27
		c0.07,0.13,0.17,0.28,0.32,0.3c0.07,0.01,0.13-0.01,0.2-0.03c1.61-0.5,3.21-1.02,4.67-1.87c0.07-0.04,0.14-0.08,0.21-0.13
		c1.3-0.79,2.49-1.87,3.03-3.33c0.38-1.05,0.31-2.21-0.03-3.26c-0.02-0.07-0.05-0.14-0.07-0.21c-0.48-1.31-1.4-2.44-2.6-3.16
		C397.23,492.38,395.79,492.18,394.34,492.29"/>
	<path class="st0" d="M419.85,460.35c-1.7,1.52-3.54,3.15-3.54,3.15l0.01,0.42c0.1-0.11,0.52-0.43,0.87-0.58
		c0.35-0.15,0.67-0.21,0.97-0.18c0.3,0.03,0.62,0.24,0.96,0.62l12.24,13.72c0.34,0.38,0.51,0.72,0.51,1.02c0,0.3-0.1,0.62-0.29,0.95
		c-0.19,0.33-0.35,0.53-0.48,0.62l0.21,0.24l5.56-4.96l-0.21-0.24c-0.15,0.19-0.99,0.88-1.35,1.01c-0.35,0.13-0.64,0.17-0.87,0.11
		c-0.37-0.1-0.7-0.3-0.98-0.62l-4.73-5.3l-0.38-0.42l-0.85-0.95c-0.09-0.1-0.19-0.21-0.28-0.31c-0.56-0.63-1.12-1.26-1.69-1.89
		c-0.56-0.63-1.12-1.26-1.69-1.89c-0.56-0.63-1.12-1.26-1.69-1.89c-0.56-0.63-1.59-1.78-2.15-2.41"/>
	<path class="st0" d="M420.97,459.73c1.6-1.31,2.68-1.88,4.95-1.75c0.93,0.05,1.83,0.39,2.6,0.9c2.22,1.45,2.94,4.2,1.43,6.43
		c-0.51,0.75-1.16,1.38-1.83,1.98c-0.08,0.07-0.18,0.17-0.16,0.28c1.28-0.77,2.6-1.57,3.44-2.8c0.9-1.31,1.16-3.05,0.69-4.57
		c-1.21-3.93-6.42-5.04-9.4-2.39c-0.01,0-0.5,0.45-1.91,1.71L420.97,459.73z"/>
	<path class="st0" d="M357.16,499.82c0.17-0.09,0.56-0.13,1-0.19c0.52-0.07,1.02-0.01,1.2,0.06c0.56,0.22,0.91,0.59,0.89,0.85
		l-1.98,9.46l-6.89-6.75c-0.29-0.36-0.38-0.69-0.28-1.01c0.14-0.51,0.48-0.8,1-0.88l-0.08-0.28l-6.15,1.88l0.08,0.28
		c0.2-0.06,0.52-0.09,0.96-0.08c0.44,0.01,0.75,0.05,0.94,0.14c0.46,0.2,0.81,0.44,1.05,0.71l7.31,6.89l2.05,6.7
		c0.13,0.44,0.14,0.78,0.03,1.02c-0.11,0.25-0.31,0.46-0.59,0.66s-0.49,0.3-0.62,0.32l0.08,0.27l5.47-1.67l-0.08-0.27
		c-0.19,0.1-0.45,0.13-0.79,0.11c-0.34-0.03-0.59-0.11-0.74-0.24c-0.27-0.22-0.45-0.51-0.57-0.87l-2.05-6.7l2.07-9.78
		c0.05-0.43,0.25-0.88,0.61-1.33c0.36-0.45,0.88-0.78,1.55-0.98l-0.08-0.27l-5.47,1.67L357.16,499.82z"/>
	<path class="st0" d="M493.7,334.81c-0.08,0.14-0.17,0.29-0.25,0.43c-0.82,1.47-1.96,3.77-3.3,4.84c-0.68,0.54-1.55,0.89-2.41,0.78
		c-0.75-0.1-1.43-0.55-1.89-1.15c-0.46-0.6-0.7-1.35-0.78-2.1c-0.29-2.87,2.28-6.16,5.12-6.54c0.19-0.03,0.39-0.04,0.58-0.04
		c-1.21-0.13-2.41-0.26-3.62-0.38c-0.16-0.02-0.33-0.03-0.48,0.04c-0.15,0.08-0.24,0.23-0.32,0.37c-1.37,2.51-2.55,6.23-0.68,8.83
		c0.12,0.17,0.26,0.33,0.41,0.48c1.88,1.88,5.2,1.53,7.17,0.02c0.91-0.7,1.57-1.56,2.16-2.53c0.37-0.62,0.73-1.25,1.08-1.88
		c0.54-0.99,1.32-2.4,2.24-3.09c1.79-1.35,4.33-0.43,5.35,1.42c0.73,1.33,0.48,2.92-0.04,4.27c-0.25,0.66-0.58,1.3-0.97,1.89
		c-0.38,0.58-0.78,1.14-1.31,1.6c-0.67,0.57-1.53,0.95-2.41,0.94c1.25,0.13,2.5,0.26,3.75,0.38c0.15,0.01,0.33,0.02,0.43-0.09
		c0.05-0.05,0.07-0.12,0.09-0.18c0.52-1.61,1.02-3.24,1.16-4.93c0.01-0.08,0.01-0.17,0.02-0.25c0.1-1.53-0.1-3.13-0.99-4.42
		c-0.64-0.92-1.64-1.53-2.7-1.86c-0.07-0.02-0.14-0.04-0.21-0.06c-1.36-0.36-2.82-0.25-4.11,0.31
		C495.45,332.48,494.45,333.55,493.7,334.81"/>
	<path class="st0" d="M483,362.41c-0.3-0.06-0.5-0.18-0.6-0.36c-0.1-0.18-0.13-0.4-0.08-0.64l0.8-4.18
		c0.28-1.47,0.66-2.17,1.26-2.65c0.9-0.73,2.77-0.96,4.25-0.92l-4.82-0.92l-2.6,13.66l0.28,0.05c0.01-0.13,0.09-0.35,0.25-0.64
		c0.16-0.3,0.36-0.51,0.59-0.65c0.23-0.14,0.57-0.17,1.01-0.08l15.36,2.92c0.45,0.08,0.75,0.23,0.91,0.45
		c0.16,0.21,0.26,0.49,0.31,0.82c0.04,0.34,0.04,0.57,0,0.69l0.28,0.05l2.6-13.66l-5.58-1.06c0.24,0.05,0.72,0.28,1.43,0.71
		c0.96,0.55,2.56,1.3,2.94,1.89c0.38,0.59,0.48,1.37,0.19,2.9l-0.8,4.18c-0.05,0.26-0.14,0.45-0.28,0.58
		c-0.14,0.13-0.38,0.16-0.71,0.1l-7.3-1.39l-1.1-0.21l0.73-3.84c0.09-0.34,0.23-0.58,0.41-0.68c0.22-0.13,0.93-0.15,1.41-0.18
		c0.48-0.03,0.77-0.02,0.87,0.04l0.05-0.28l-5.02-0.96l-0.05,0.28c0.2-0.02,0.51,0.08,0.93,0.29c0.42,0.22,1.04,0.49,1.14,0.68
		c0.11,0.21,0.15,0.47,0.12,0.79l-0.73,3.84l-0.51-0.1L483,362.41z"/>
	<path class="st0" d="M327.81,507.67c-0.05-0.3,0-0.53,0.13-0.68c0.14-0.16,0.33-0.25,0.57-0.29l4.19-0.67
		c1.47-0.24,2.25-0.11,2.91,0.28c0.99,0.59,1.83,2.27,2.3,3.67l-0.77-4.83l-13.68,2.19l0.04,0.28c0.13-0.04,0.36-0.03,0.69,0.02
		c0.33,0.05,0.6,0.16,0.81,0.33c0.21,0.17,0.35,0.47,0.42,0.92l2.46,15.38c0.07,0.45,0.03,0.78-0.11,1.01
		c-0.15,0.23-0.37,0.41-0.67,0.57c-0.3,0.15-0.52,0.23-0.65,0.23l0.05,0.28l13.68-2.19l-0.89-5.58c0.04,0.24-0.02,0.77-0.18,1.57
		c-0.19,1.08-0.35,2.84-0.77,3.4c-0.43,0.56-1.12,0.91-2.65,1.15l-4.19,0.67c-0.26,0.04-0.47,0.02-0.64-0.07s-0.28-0.3-0.33-0.63
		l-1.17-7.31l-0.18-1.1l3.84-0.61c0.35-0.03,0.62,0.02,0.78,0.15c0.2,0.16,0.45,0.82,0.64,1.26c0.19,0.44,0.28,0.71,0.26,0.83
		l0.28-0.04l-0.8-5.03l-0.28,0.05c0.09,0.18,0.1,0.5,0.04,0.97c-0.06,0.47-0.1,1.14-0.25,1.3c-0.16,0.18-0.39,0.3-0.69,0.38
		l-3.84,0.61l-0.08-0.51L327.81,507.67z"/>
	<path class="st0" d="M315.45,477.72c0,2.92-2.37,5.29-5.29,5.29s-5.29-2.37-5.29-5.29s2.37-5.29,5.29-5.29
		S315.45,474.8,315.45,477.72"/>
	<path class="st0" d="M382.55,324.27c-24.33,3.3-41.72,14.65-52.66,28.75c-3.13-4.03-6.6-8.79-10.78-13.73
		c-0.05-0.06,1.56-2.02,1.71-2.21c1.03-1.34,2.06-2.69,3.08-4.04c1.15-1.51,2.29-3.03,3.43-4.55c1.25-1.67,2.49-3.34,3.74-5.01
		c1.34-1.81,2.68-3.61,4.02-5.42c1.42-1.93,2.84-3.85,4.26-5.78c1.49-2.03,2.98-4.06,4.47-6.09c1.55-2.12,3.1-4.23,4.65-6.35
		c1.6-2.19,3.2-4.37,4.79-6.56c1.63-2.24,3.27-4.48,4.9-6.72c1.66-2.28,3.32-4.55,4.97-6.83c1.67-2.3,3.34-4.59,5.01-6.89
		c1.67-2.3,3.35-4.6,5.02-6.9c1.66-2.29,3.33-4.57,4.99-6.85c1.64-2.25,3.29-4.51,4.93-6.76c1.61-2.21,3.22-4.41,4.83-6.62
		c1.57-2.14,3.13-4.29,4.7-6.43c1.51-2.06,3.02-4.12,4.54-6.18c1.44-1.96,2.89-3.93,4.34-5.89c4.12-5.59,8.25-11.16,12.53-16.63
		c1.63-2.08,3.2-4.2,4.72-6.36c1.89-2.69,4.35-5.64,5.4-8.78c0.45-1.35-0.23-1.93-1.45-1.06c-2.41,1.72-4.11,4.2-6.11,6.35
		c-2.05,2.21-4.12,4.42-6.21,6.6c-4.21,4.41-8.51,8.73-12.96,12.9c-1.88,1.86-3.76,3.72-5.64,5.58c-2.02,1.99-4.04,3.98-6.06,5.96
		c-2.14,2.1-4.29,4.2-6.44,6.3c-2.25,2.2-4.51,4.39-6.77,6.58c-2.35,2.28-4.7,4.55-7.05,6.82c-2.43,2.34-4.86,4.67-7.29,7
		c-2.49,2.38-4.99,4.76-7.49,7.13c-2.54,2.41-5.09,4.81-7.64,7.21c-2.58,2.42-5.16,4.83-7.75,7.24c-2.6,2.41-5.2,4.82-7.81,7.22
		c-2.6,2.39-5.21,4.78-7.82,7.15c-2.59,2.35-5.19,4.7-7.79,7.03c-2.56,2.29-5.14,4.58-7.72,6.85c-2.52,2.22-5.06,4.43-7.6,6.63
		c-28.33-27.1-69.18-54.02-119.23-54.02c-86.21,0-137.31,51.64-146.17,102.73c-18.42-15.56-27.63-36.62-27.63-58.41
		c0-52.74,53.88-110.24,163.38-110.24c104.98,0,161.29,56.77,161.29,56.77s-54.92-60.43-161.29-60.43
		C55.27,191.33,0,251.03,0,305.23c0,22.52,10.43,45.23,30.59,62.63c-0.52,3.85-0.7,7.69-0.7,11.35c0,64.46,62.57,90.09,111.93,90.09
		c60.83,0,113.15-42.85,165.81-114.26l9.73-13.18l10.43,13.92c-7.99,11.54-11.82,24.72-11.82,36.62c0,14.1,4.87,23.07,12.17,28.2
		c-5.04,10.45-11.2,25-15.81,35.82c-0.02,0.06-0.05,0.11-0.07,0.17c-0.19,0.49-0.31,1.01-0.31,1.57c0,0.53,0.11,1.04,0.29,1.51
		c0.61,1.59,2.14,2.73,3.95,2.73c1.8,0,3.33-1.12,3.95-2.7c4-9.89,10.25-25.36,14.95-35.43c4.35,1.65,9.21,2.2,14.25,2.2
		c28.16,0,53.88-19.78,73-37.72l19.13-17.2c-1.24,0.62-2.41,1.94-3.5,2.81c-1.22,0.97-2.44,1.94-3.66,2.9
		c-2.44,1.93-4.9,3.84-7.37,5.73c-4.84,3.72-9.8,7.28-14.65,10.97c-9.54,7.24-19.28,14.6-29.85,20.27
		c-3.79,2.03-7.71,3.83-11.76,5.31c-0.34,0.12-0.67,0.24-1.01,0.36c-6.53,2.27-13.4,3.66-20.33,3.66c-4.69,0-9.21-0.73-13.04-2.2
		c0.1,0.04,6.58-13.82,7.19-15.07c3.03-6.2,6.14-12.36,9.31-18.48c3.22-6.21,6.52-12.39,9.88-18.53c3.4-6.2,6.88-12.36,10.42-18.48
		c3.57-6.16,7.22-12.29,10.94-18.36c3.73-6.1,7.54-12.15,11.43-18.16c3.88-6.01,7.85-11.97,11.88-17.87
		c4.03-5.89,8.13-11.73,12.32-17.51c4.16-5.75,8.4-11.44,12.72-17.06c4.28-5.58,8.65-11.09,13.1-16.53
		c4.4-5.38,8.87-10.69,13.44-15.92c4.5-5.16,9.09-10.24,13.76-15.23c4.6-4.91,9.28-9.73,14.06-14.46
		c4.68-4.63,9.45-9.17,14.32-13.61c4.76-4.33,9.61-8.56,14.56-12.67c4.83-4.01,9.75-7.9,14.77-11.66
		c4.89-3.66,9.87-7.18,14.95-10.56c4.94-3.28,9.97-6.41,15.1-9.38c4.98-2.88,10.06-5.59,15.23-8.12c3.76-1.83,7.58-3.52,11.39-5.23
		c0-0.09,1.14-0.51,1.27-0.57c0.41-0.19,0.83-0.37,1.24-0.56c0.87-0.4,1.75-0.78,2.63-1.16c3.75-1.62,7.53-3.15,11.35-4.59
		c1.59-0.6,3.18-1.18,4.79-1.75c1.56-0.55,3.14-1.05,4.72-1.54c3.42-1.07,6.87-2.05,10.34-2.96c3.03-0.79,6.08-1.53,9.14-2.22
		c2.43-0.54,4.86-1.05,7.3-1.52c0.04-0.01,0.08-0.02,0.12-0.02C547.63,118.31,452.34,216.17,382.55,324.27 M177.28,264.58
		c49.01,0,88.99,26,116.8,52.37c-44.15,37.72-114.37,72.88-178.33,72.88c-35.63,0-62.75-9.16-81.52-23.62
		C41.71,315.85,91.77,264.58,177.28,264.58 M280.18,382.5c-45.54,49.44-104.63,74.71-158.16,74.71c-40.67,0-88.64-30.4-88.64-78.01
		c0-2.75,0-5.68,0.35-8.61c21.21,16.85,51.8,28.02,91.42,28.02c79.95,0,122.36-35.89,167.55-74.34c1.56-1.28,3.13-2.75,4.69-4.03
		c6.6,6.59,12.52,13,17.56,19.04C304.16,353.94,292.69,368.95,280.18,382.5 M317.03,336.73c-5.04-5.86-10.78-12.27-17.21-18.68
		c36.32-32.05,77.69-72.7,102.37-97.42C374.73,257.8,331.97,315.3,317.03,336.73 M329.71,417.66c-6.43-4.94-10.25-13-10.25-25.27
		c0-10.99,3.3-22.89,10.43-33.69c5.56,8.06,5.74,7.79,9.75,16.28c0,0-1.58-10.24-7.84-19.21c9.91-13.37,25.9-24.17,48.32-27.65
		C361.17,357.78,344.14,388.18,329.71,417.66"/>
</g>
</svg>
